#!OML:ASF F:\VICON\USERDATA\INSTALL\rory3\rory3.ASF
:FULLY-SPECIFIED
:DEGREES
858
root -6.12345 14.6212 -8.83747 -113.281 -79.4259 -229.236
lowerback 2.7269 0.63465 -3.50399
upperback -5.82279 -0.140124 -6.71406
thorax -7.69035 -0.231796 -5.11382
lowerneck -16.0363 9.09722 3.06429
upperneck 6.8651 12.4795 -8.61622
head 5.41065 5.55582 -1.97931
rclavicle 7.95139e-015 -1.43125e-014
rhumerus -44.1783 2.09875 -86.2646
rradius 59.4876
rwrist -20.6561
rhand -6.0572 16.6765
rfingers 7.12502
rthumb 19.7774 -12.3373
lclavicle 7.95139e-015 -1.43125e-014
lhumerus -25.7118 2.38958 73.3638
lradius 21.3102
lwrist -13.6919
lhand -3.097 16.4458
lfingers 7.12502
lthumb 22.6209 45.1403
rfemur 293.136 -26.1546 -355.734
rtibia 44.7557
rfoot 149.819 -226.591
rtoes 44.5027
lfemur -45.3103 26.1689 -37.3905
ltibia 68.4424
lfoot 134.691 -160.636
ltoes -7.60491
859
root -6.10077 14.6347 -8.77178 -110.141 -79.9298 -232.804
lowerback 3.0353 0.758081 -3.51088
upperback -5.55066 0.0512188 -6.63035
thorax -7.56121 -0.122039 -5.03431
lowerneck -16.2315 8.71053 2.81867
upperneck 6.94725 11.9921 -8.4424
head 5.41397 5.31688 -1.93451
rclavicle -2.65378e-014 7.95139e-015
rhumerus -44.1854 1.62426 -85.4907
rradius 59.2274
rwrist -21.4997
rhand -6.0608 16.3601
rfingers 7.12502
rthumb 19.7739 -12.6541
lclavicle -2.65378e-014 7.95139e-015
lhumerus -25.467 3.08232 73.0714
lradius 21.433
lwrist -13.0747
lhand -3.1148 16.2511
lfingers 7.12502
lthumb 22.6038 44.9476
rfemur 294.464 -26.0364 -357.087
rtibia 44.8168
rfoot 150.941 -225.98
rtoes 43.2032
lfemur -44.945 26.7049 -37.699
ltibia 68.4247
lfoot 135.958 -158.245
ltoes -23.4899
860
root -6.08148 14.6247 -8.68956 -105.862 -80.1043 -236.612
lowerback 2.28777 0.843502 -3.68949
upperback -5.52623 0.221884 -6.57721
thorax -7.08832 -0.0230561 -4.87091
lowerneck -16.5232 8.46528 2.58713
upperneck 7.19739 11.7228 -8.40096
head 5.50938 5.1651 -1.90142
rclavicle 8.84592e-015 4.05521e-014
rhumerus -44.2047 1.64296 -84.8081
rradius 58.9596
rwrist -22.8732
rhand -6.41766 15.7682
rfingers 7.12502
rthumb 19.4308 -13.2809
lclavicle 8.84592e-015 4.05521e-014
lhumerus -25.4955 2.06371 73.4735
lradius 22.0146
lwrist -10.7587
lhand -3.75063 17.0923
lfingers 7.12502
lthumb 21.9934 45.8619
rfemur 293.652 -28.6309 -355.91
rtibia 44.8447
rfoot 153.918 -222.825
rtoes 42.3061
lfemur -45.3918 25.9626 -38.0607
ltibia 68.3392
lfoot 134.294 -162.97
ltoes -9.11852
861
root -6.05011 14.6075 -8.64404 -97.6664 -80.3702 -244.871
lowerback 2.4518 0.678303 -4.19111
upperback -5.43798 -0.0304163 -6.52206
thorax -7.10619 -0.116511 -4.50809
lowerneck -16.6524 8.30248 2.61239
upperneck 7.43781 11.516 -8.37199
head 5.59461 5.05688 -1.9102
rclavicle -2.08724e-015 4.77083e-015
rhumerus -44.2754 1.49459 -84.0839
rradius 58.3747
rwrist -23.1163
rhand -6.12653 15.8919
rfingers 7.12502
rthumb 19.7107 -13.1287
lclavicle -2.08724e-015 4.77083e-015
lhumerus -25.7187 0.448129 73.7787
lradius 22.764
lwrist -7.93453
lhand -4.46953 17.7618
lfingers 7.12502
lthumb 21.303 46.6109
rfemur 294.417 -29.8832 -356.76
rtibia 44.8788
rfoot 154.271 -221.247
rtoes 40.4233
lfemur -45.3401 24.9497 -38.4479
ltibia 68.3214
lfoot 134.271 -164.05
ltoes -6.22504
862
root -6.02972 14.6194 -8.60353 -92.0553 -81.0258 -250.274
lowerback 2.18014 0.728355 -4.22951
upperback -5.38487 0.0817591 -6.39504
thorax -6.88358 -0.049706 -4.35191
lowerneck -16.775 8.05267 2.87049
upperneck 7.59069 11.1387 -8.37485
head 5.65657 4.87509 -1.98532
rclavicle 3.67752e-015 1.19271e-014
rhumerus -44.3275 0.584571 -83.2811
rradius 57.5328
rwrist -22.4215
rhand -5.61332 16.3375
rfingers 7.12502
rthumb 20.204 -12.6318
lclavicle 3.67752e-015 1.19271e-014
lhumerus -25.5597 0.14785 73.4458
lradius 22.9565
lwrist -6.81698
lhand -4.54542 17.6258
lfingers 7.12502
lthumb 21.2301 46.4831
rfemur 295.269 -29.6656 -357.573
rtibia 44.8687
rfoot 153.79 -220.773
rtoes 38.8526
lfemur -45.642 24.763 -38.2343
ltibia 68.2922
lfoot 134.502 -165.174
ltoes -4.601
863
root -6.0125 14.6312 -8.5346 -86.0232 -81.5556 -256.212
lowerback 1.93273 0.824305 -3.78837
upperback -5.24319 0.278436 -6.41871
thorax -6.5728 0.0293561 -4.63031
lowerneck -17.2405 7.72433 2.93139
upperneck 7.97691 10.6826 -8.14809
head 5.81744 4.65034 -1.9546
rclavicle -6.55989e-015 1.19271e-014
rhumerus -44.3571 -0.232286 -82.8396
rradius 56.7706
rwrist -22.7853
rhand -7.60652 15.829
rfingers 7.12502
rthumb 18.2874 -13.3313
lclavicle -6.55989e-015 1.19271e-014
lhumerus -25.1846 0.389777 73.042
lradius 22.9434
lwrist -6.4714
lhand -5.03523 17.8358
lfingers 7.12502
lthumb 20.7596 46.7454
rfemur 295.794 -30.5596 -357.669
rtibia 45.0135
rfoot 154.078 -219.014
rtoes 39.915
lfemur -45.6246 24.3705 -37.9788
ltibia 68.017
lfoot 134.32 -167.168
ltoes -0.788868
864
root -5.99786 14.6399 -8.4654 -80.1383 -81.889 -262
lowerback 1.67397 0.946483 -3.9768
upperback -5.17204 0.507259 -6.00076
thorax -6.33543 0.176184 -4.08633
lowerneck -17.1384 7.43222 2.78157
upperneck 7.95788 10.359 -8.45604
head 5.78974 4.46664 -2.06756
rclavicle -1.8487e-014 4.77083e-014
rhumerus -44.4684 -0.377301 -81.7906
rradius 55.9325
rwrist -23.7563
rhand -10.0139 15.005
rfingers 7.12502
rthumb 15.9702 -14.3567
lclavicle -1.8487e-014 4.77083e-014
lhumerus -25.0771 0.576692 73.5492
lradius 22.8798
lwrist -6.1971
lhand -5.09667 18.0595
lfingers 7.12502
lthumb 20.7005 46.9755
rfemur 295.918 -32.186 -357.102
rtibia 45.1572
rfoot 154.984 -216.361
rtoes 42.7471
lfemur -45.6368 24.0521 -37.9032
ltibia 67.7001
lfoot 134.454 -168.4
ltoes 1.34525
865
root -5.95997 14.7552 -8.34162 -73.5378 -82.0318 -268.597
lowerback 1.59475 1.14899 -3.68988
upperback -5.13104 0.792818 -6.20174
thorax -6.22716 0.298094 -4.47816
lowerneck -17.0021 7.24044 3.48269
upperneck 8.06993 9.99067 -8.68225
head 5.83004 4.29741 -2.29028
rclavicle 3.18055e-015 2.94201e-014
rhumerus -44.7352 -1.78681 -81.0758
rradius 54.7142
rwrist -24.1398
rhand -9.69015 14.7796
rfingers 7.12502
rthumb 16.282 -14.5568
lclavicle 3.18055e-015 2.94201e-014
lhumerus -25.1475 -2.74936 74.052
lradius 23.5218
lwrist -3.28721
lhand -5.2455 18.9617
lfingers 7.12502
lthumb 20.5575 47.8933
rfemur 292.877 -43.562 -341.254
rtibia 45.4969
rfoot 154.644 -187.811
rtoes 60.4057
lfemur -45.1374 23.571 -38.2333
ltibia 66.7436
lfoot 134.814 -168.081
ltoes -2.49503
866
root -5.95351 14.7866 -8.28825 -66.342 -82.2601 -275.921
lowerback 1.75401 1.14562 -3.7699
upperback -5.15747 0.822377 -5.69577
thorax -6.34892 0.342322 -3.90325
lowerneck -16.9241 7.12956 2.48883
upperneck 8.26024 10.0343 -8.36977
head 5.81375 4.30428 -2.03397
rclavicle -1.22253e-014 1.59028e-014
rhumerus -44.8761 -1.99278 -79.7789
rradius 53.2624
rwrist -24.1754
rhand -7.14516 14.837
rfingers 7.12502
rthumb 18.7312 -14.2812
lclavicle -1.22253e-014 1.59028e-014
lhumerus -24.8315 5.47327 72.0366
lradius 22.1253
lwrist -10.5674
lhand -4.66575 17.3838
lfingers 7.12502
lthumb 21.1145 46.2541
rfemur 276.404 -56.3757 -319.463
rtibia 45.6964
rfoot 172.843 -184.853
rtoes 61.1052
lfemur -44.7355 23.3822 -37.9479
ltibia 66.2222
lfoot 135.335 -167.618
ltoes -11.9998
867
root -5.94617 14.8273 -8.24249 -58.4762 -82.4729 -283.866
lowerback 1.86919 1.13944 -3.42604
upperback -5.17411 0.848333 -5.48808
thorax -6.4256 0.350265 -3.88216
lowerneck -16.4819 6.62212 1.85362
upperneck 7.95533 9.37141 -7.62804
head 5.53873 4.04375 -1.79323
rclavicle -7.15625e-015 3.81667e-014
rhumerus -45.0154 -2.45928 -79.1004
rradius 51.7511
rwrist -23.9832
rhand -5.26164 14.7392
rfingers 7.12502
rthumb 20.542 -14.194
lclavicle -7.15625e-015 3.81667e-014
lhumerus -24.9034 10.8447 70.1281
lradius 21.6522
lwrist -14.9973
lhand -3.9198 16.1365
lfingers 7.12502
lthumb 21.831 44.9251
rfemur 245.194 -62.6773 -283.22
rtibia 45.9078
rfoot 190.615 -181.066
rtoes 61.7119
lfemur -44.4242 23.1921 -37.4705
ltibia 65.6477
lfoot 135.954 -167.478
ltoes -7.04636
